<svg xmlns="http://www.w3.org/2000/svg" viewBox="0 0 1190.29 742.71"><defs><style>.cls-1,.cls-22,.cls-23,.cls-24{fill:#fff}.cls-1,.cls-2{opacity:.05}.cls-3,.cls-7{font-size:13.42px}.cls-17,.cls-22,.cls-3,.cls-7{font-family:ArialMT,Arial}.cls-4{letter-spacing:-.11em}.cls-5{letter-spacing:-.02em}.cls-6{letter-spacing:-.07em}.cls-15,.cls-7{fill:#f96282}.cls-8{letter-spacing:-.02em}.cls-9{letter-spacing:-.06em}.cls-10{letter-spacing:-.02em}.cls-11{letter-spacing:0}.cls-12{letter-spacing:-.06em}.cls-13{letter-spacing:-.04em}.cls-14{letter-spacing:0}.cls-16,.cls-18,.cls-19,.cls-20,.cls-21{fill:#00458b}.cls-17{font-size:13.77px}.cls-18,.cls-19,.cls-20,.cls-21,.cls-23,.cls-24{stroke:#fff;stroke-miterlimit:10}.cls-18{stroke-width:1.3px}.cls-19{stroke-width:1.06px}.cls-20,.cls-21{stroke-width:1.3px}.cls-22{font-size:10.72px}.cls-23,.cls-24{stroke-width:1.27px}</style></defs><g id="Layer_2" data-name="Layer 2"><g id="Needs_Segmentation_Differences" data-name="Needs Segmentation Differences"><rect width="1190.29" height="24.23" y="655.12" class="cls-1"/><rect width="1190.29" height="24.23" y="630.89" class="cls-2"/><rect width="1190.29" height="24.23" y="606.67" class="cls-1"/><rect width="1190.29" height="24.23" y="582.44" class="cls-2"/><rect width="1190.29" height="24.23" y="558.21" class="cls-1"/><rect width="1190.29" height="24.23" y="533.98" class="cls-2"/><rect width="1190.29" height="24.23" y="509.76" class="cls-1"/><rect width="1190.29" height="24.23" y="485.53" class="cls-2"/><rect width="1190.29" height="24.23" y="461.3" class="cls-1"/><rect width="1190.29" height="24.23" y="437.07" class="cls-2"/><rect width="1190.29" height="24.23" y="412.84" class="cls-1"/><rect width="1190.29" height="24.23" y="388.62" class="cls-2"/><rect width="1188.5" height="24.23" y="364.39" class="cls-1"/><rect width="1190.29" height="24.23" y="340.16" class="cls-2"/><rect width="1190.29" height="24.23" y="315.93" class="cls-1"/><rect width="1190.29" height="24.23" y="291.7" class="cls-2"/><rect width="1190.29" height="24.23" y="267.48" class="cls-1"/><rect width="1190.29" height="24.23" y="243.25" class="cls-2"/><rect width="1190.29" height="24.23" y="219.02" class="cls-1"/><rect width="1190.29" height="24.23" y="194.79" class="cls-2"/><rect width="1189.4" height="24.23" y="170.57" class="cls-1"/><rect width="1190.29" height="24.23" y="146.34" class="cls-2"/><rect width="1190.29" height="24.23" y="122.11" class="cls-1"/><rect width="1190.29" height="24.23" y="97.88" class="cls-2"/><rect width="1190.29" height="24.23" y="73.65" class="cls-1"/><rect width="1190.29" height="24.23" y="49.43" class="cls-2"/><rect width="1190.29" height="24.23" y="25.2" class="cls-1"/><rect width="1190.29" height="24.23" y=".97" class="cls-2"/><text class="cls-3" transform="translate(12.45 89.74)"><tspan class="cls-4">T</tspan><tspan x="6.71" y="0">esting across browsers</tspan></text><text class="cls-3" transform="translate(14.45 65.52)">Making a design look/work the same across browsers</text><text class="cls-3" transform="translate(14.45 41.29)"><tspan class="cls-5">A</tspan><tspan x="8.71" y="0">voiding or removing a feature that doesn&apos;t work across browsers</tspan></text><text class="cls-3" transform="translate(14.45 16.73)">Having to support specific browsers (e.g., IE<tspan x="262.52" y="0" class="cls-6">1</tspan><tspan x="268.99" y="0">1)</tspan></text><text class="cls-3" transform="translate(14.45 113.97)">Discovering bugs not caught during testing</text><text class="cls-3" transform="translate(14.45 210.88)">Supporting multiple frameworks in the same code base</text><text class="cls-7" transform="translate(14.45 186.66)">Managing user data to comply with laws and regulations</text><text class="cls-3" transform="translate(14.45 162.43)">Keeping up with a large number of new and existing tools or frameworks</text><text class="cls-3" transform="translate(14.45 138.2)">Outdated or inaccurate documentation for frameworks and libraries</text><text class="cls-3" transform="translate(14.45 550.07)">Knowing what browsers support a specific technology</text><text class="cls-3" transform="translate(14.45 525.84)">Implementing performance optimizations</text><text class="cls-3" transform="translate(14.45 501.62)">Making web sites/applications accessible</text><text class="cls-3" transform="translate(14.45 477.39)">Running front-end tests</text><text class="cls-3" transform="translate(14.45 574.3)">Keeping up with changes to the web platform</text><text class="cls-3" transform="translate(14.45 598.53)">Outdated documentation for HTML, CSS, and JavaScript</text><text class="cls-3" transform="translate(14.45 671.21)">Getting users to grant permissions to <tspan x="223" y="0" class="cls-8">W</tspan><tspan x="235.42" y="0">eb</tspan><tspan x="250.34" y="0" class="cls-9"> </tspan><tspan x="253.33" y="0">APIs (e.g., Geolocation)</tspan></text><text class="cls-3" transform="translate(14.45 646.98)">Implementing localization</text><text class="cls-3" transform="translate(14.45 622.76)">Capability of the web to support a specified layout</text><text class="cls-7" transform="translate(14.45 235.11)">Understanding and implementing security measures</text><text class="cls-3" transform="translate(14.45 332.02)">Running end-to-end tests</text><text class="cls-3" transform="translate(14.45 307.8)">Determining the root cause of a bug</text><text class="cls-7" transform="translate(14.45 283.57)"><tspan class="cls-10">W</tspan><tspan x="12.42" y="0" class="cls-11">orking with di</tspan><tspan x="90.73" y="0" class="cls-5">f</tspan><tspan x="94.22" y="0">ferent tracking protection and data storage policies in browsers</tspan></text><text class="cls-3" transform="translate(14.45 356.25)">Lack of<tspan x="43.26" y="0" class="cls-12"> </tspan><tspan x="46.25" y="0">APIs to take advantage of device capabilities (e.g, sensors, OS and hardware features, etc.)</tspan></text><text class="cls-3" transform="translate(14.45 453.16)">Lack of support for progressive web apps (P<tspan x="262.54" y="0" class="cls-13">W</tspan><tspan x="274.71" y="0" class="cls-14">As)</tspan></text><text class="cls-3" transform="translate(14.45 428.93)">Using web technologies in a native or hybrid context (e.g, using <tspan x="379.66" y="0" class="cls-10">W</tspan><tspan x="392.08" y="0" class="cls-11">eb</tspan><tspan x="407.01" y="0" class="cls-5">V</tspan><tspan x="415.72" y="0">iews, Electron, CEF)</tspan></text><text class="cls-3" transform="translate(14.45 404.7)">Achieving visual precision on stylized elements (e.g., buttons)</text><text class="cls-7" transform="translate(14.45 380.45)">Integrating with third parties for authentication</text><text class="cls-3" transform="translate(14.45 259.34)">Pinpointing existing performance issues</text><circle cx="7.61" cy="717.57" r="6.32" class="cls-15"/><circle cx="7.61" cy="701.54" r="6.32" class="cls-16"/><text class="cls-17" transform="translate(19.76 721.72)">n = 957</text><text class="cls-17" transform="translate(18.76 704.77)">n = 6,645</text><rect width="241" height="24.23" x="617.93" y="73.65" class="cls-18"/><rect width="236.5" height="24.23" x="617.93" y="97.88" class="cls-18"/><rect width="243" height="24.23" x="617.93" y="49.43" class="cls-18"/><rect width="275" height="24.23" x="617.93" y="25.2" class="cls-18"/><rect width="377" height="24.23" x="617.93" y=".65" class="cls-18"/><rect width="196.5" height="24.23" x="617.93" y="194.79" class="cls-18"/><rect width="231.5" height="24.23" x="617.93" y="146.34" class="cls-18"/><rect width="234.5" height="24.23" x="617.93" y="122.11" class="cls-19"/><rect width="173.5" height="24.23" x="617.93" y="315.93" class="cls-18"/><rect width="169" height="24.23" x="617.93" y="340.16" class="cls-18"/><rect width="151" height="24.23" x="617.93" y="388.62" class="cls-18"/><rect width="177" height="24.23" x="617.93" y="291.7" class="cls-18"/><rect width="188" height="24.23" x="617.93" y="243.25" class="cls-18"/><rect width="134.5" height="24.23" x="617.93" y="485.53" class="cls-18"/><rect width="134" height="24.23" x="617.93" y="509.76" class="cls-20"/><rect width="139.5" height="24.23" x="617.93" y="461.3" class="cls-20"/><rect width="143" height="24.23" x="617.93" y="437.07" class="cls-18"/><rect width="145" height="24.23" x="617.93" y="412.84" class="cls-18"/><rect width="112.5" height="24.23" x="617.93" y="606.67" class="cls-18"/><rect width="108.5" height="24.23" x="617.93" y="630.89" class="cls-21"/><rect width="122.5" height="24.23" x="617.93" y="582.44" class="cls-20"/><rect width="124" height="24.23" x="617.93" y="558.21" class="cls-20"/><rect width="125" height="24.23" x="617.93" y="533.98" class="cls-18"/><rect width="79.5" height="24.23" x="617.93" y="655.12" class="cls-21"/><text class="cls-3" transform="translate(1154.59 65.52)">4.86</text><text class="cls-3" transform="translate(1154.59 89.74)">4.82</text><text class="cls-3" transform="translate(1154.59 113.97)">4.73</text><text class="cls-3" transform="translate(1154.59 16.73)">7.54</text><text class="cls-3" transform="translate(1154.59 41.29)">5.50</text><text class="cls-3" transform="translate(1154.59 210.88)">3.93</text><text class="cls-3" transform="translate(1154.59 162.43)">4.63</text><text class="cls-3" transform="translate(1154.59 138.2)">4.69</text><text class="cls-3" transform="translate(1154.59 307.8)">3.54</text><text class="cls-3" transform="translate(1154.59 332.02)">3.47</text><text class="cls-3" transform="translate(1154.59 356.25)">3.38</text><text class="cls-3" transform="translate(1154.59 259.34)">3.76</text><text class="cls-3" transform="translate(1154.59 428.93)">2.90</text><text class="cls-3" transform="translate(1154.59 453.16)">2.86</text><text class="cls-3" transform="translate(1154.59 477.39)">2.79</text><text class="cls-3" transform="translate(1154.59 404.71)">3.02</text><text class="cls-3" transform="translate(1154.59 550.07)">2.50</text><text class="cls-3" transform="translate(1154.59 574.3)">2.48</text><text class="cls-3" transform="translate(1154.59 598.53)">2.45</text><text class="cls-3" transform="translate(1154.59 525.84)">2.68</text><text class="cls-3" transform="translate(1154.59 501.62)">2.69</text><text class="cls-3" transform="translate(1154.59 671.21)">1.59</text><text class="cls-3" transform="translate(1154.59 646.98)">2.17</text><text class="cls-3" transform="translate(1154.59 622.76)">2.25</text><rect width="432.5" height="10.93" x="617.64" y="182.68" class="cls-15"/><rect width="200.5" height="12.11" x="617.64" y="170.57" class="cls-16"/><text class="cls-22" transform="translate(795.4 180.85)">4.01</text><text class="cls-7" transform="translate(1154.2 186.98)">8.65</text><path d="M1189.4,193.61H616.64V170.8H1189.4Zm-571.87-.9h571v-21h-571Z" class="cls-23"/><rect width="350.5" height="10.93" x="617.64" y="232.31" class="cls-15"/><rect width="193.5" height="12.11" x="617.64" y="220.2" class="cls-16"/><text class="cls-22" transform="translate(787.41 230.48)">3.87</text><text class="cls-7" transform="translate(1154.2 236.61)">7.01</text><path d="M1189.4,243.25H616.64V220.44H1189.4Zm-571.87-.91h571v-21h-571Z" class="cls-24"/><rect width="330.5" height="10.93" x="617.64" y="280.18" class="cls-15"/><rect width="177.5" height="12.11" x="617.64" y="268.07" class="cls-16"/><text class="cls-22" transform="translate(773.22 278.35)">3.55</text><text class="cls-7" transform="translate(1154.2 284.48)">6.61</text><path d="M1189.4,291.12H616.64V268.3H1189.4Zm-571.87-.91h571v-21h-571Z" class="cls-24"/><rect width="269.5" height="10.93" x="617.64" y="377.09" class="cls-15"/><rect width="165.5" height="12.11" x="617.64" y="364.98" class="cls-16"/><text class="cls-22" transform="translate(760.76 375.26)">3.31</text><text class="cls-7" transform="translate(1154.2 381.39)">5.39</text><path d="M1189.4,388H616.64V365.21H1189.4Zm-571.87-.91h571v-21h-571Z" class="cls-23"/></g></g></svg>